<svg xmlns="http://www.w3.org/2000/svg" width="432" height="109.854" viewBox="0 0 432 109.854">
  <g id="BuyChain-Logo-RGB" transform="translate(-34 -45)">
    <g id="Group_1359" data-name="Group 1359">
      <g id="Group_1358" data-name="Group 1358">
        <g id="Group_1356" data-name="Group 1356">
          <path id="Path_803" data-name="Path 803" d="M98.5,151.8v.5h-.8v2.5h-.6v-2.5h-.8v-.5Z" fill="#69b3e7"/>
        </g>
        <g id="Group_1357" data-name="Group 1357">
          <path id="Path_804" data-name="Path 804" d="M102.2,151.8v2.9h-.6v-1.9l-.8,1.9h-.4l-.8-1.9v1.9H99v-2.9h.7l.9,2.2.9-2.2Z" fill="#69b3e7"/>
        </g>
      </g>
      <path id="Path_805" data-name="Path 805" d="M85.1,69.9,97,90.6h22.8a3.806,3.806,0,0,1,3.3,5.7L113,114h25.4a54.115,54.115,0,0,0-8-46.9H86.7A1.887,1.887,0,0,0,85.1,69.9Z" fill="#69b3e7"/>
      <path id="Path_806" data-name="Path 806" d="M59,113.2,71,92.7,59.7,72.8A3.806,3.806,0,0,1,63,67.1H83.4L70.8,45A54.319,54.319,0,0,0,34,75.2l21.7,37.9A1.885,1.885,0,0,0,59,113.2Z" fill="#69b3e7"/>
      <path id="Path_807" data-name="Path 807" d="M109.5,114H85.7L74.3,133.7a3.8,3.8,0,0,1-6.6,0L57.4,116.1l-12.7,22a54.467,54.467,0,0,0,44.6,16.5l21.9-37.8A1.9,1.9,0,0,0,109.5,114Z" fill="#69b3e7"/>
    </g>
    <g id="Group_1368" data-name="Group 1368">
      <g id="Group_1360" data-name="Group 1360">
        <path id="Path_808" data-name="Path 808" d="M197.2,93.9a11.713,11.713,0,0,1,2.6,7.4,12.1,12.1,0,0,1-1.8,6.6,12.424,12.424,0,0,1-5.3,4.5,19.214,19.214,0,0,1-8.3,1.6H164V67.1h19.4a20.354,20.354,0,0,1,8.2,1.5,11.224,11.224,0,0,1,5.2,4.3,11.091,11.091,0,0,1,1.8,6.3,10.759,10.759,0,0,1-2.2,6.9,12.469,12.469,0,0,1-5.8,3.9A10.3,10.3,0,0,1,197.2,93.9Zm-23.7-7.4h8.6a8.052,8.052,0,0,0,5.2-1.5,5.372,5.372,0,0,0,1.8-4.3,5.585,5.585,0,0,0-1.8-4.4,7.866,7.866,0,0,0-5.2-1.5h-8.6Zm14.8,18.3a5.621,5.621,0,0,0,1.9-4.6,5.9,5.9,0,0,0-2-4.7,8.307,8.307,0,0,0-5.4-1.7h-9.3v12.6H183A8.573,8.573,0,0,0,188.3,104.8Z" fill="#280071"/>
      </g>
      <g id="Group_1361" data-name="Group 1361">
        <path id="Path_809" data-name="Path 809" d="M238.4,76.8V114h-9.5v-4.7a12.552,12.552,0,0,1-4.7,3.8,15,15,0,0,1-6.4,1.4,15.923,15.923,0,0,1-7.7-1.8,13.141,13.141,0,0,1-5.3-5.4,17.9,17.9,0,0,1-1.9-8.6V76.8h9.4V97.3c0,3,.7,5.2,2.2,6.8a8.952,8.952,0,0,0,12.2,0c1.5-1.6,2.2-3.9,2.2-6.8V76.8Z" fill="#280071"/>
      </g>
      <g id="Group_1362" data-name="Group 1362">
        <path id="Path_810" data-name="Path 810" d="M358.3,78.1a12.144,12.144,0,0,1,5.1,5.4,19.137,19.137,0,0,1,1.8,8.6V114h-9.4V93.5c0-3-.7-5.2-2.2-6.8a7.909,7.909,0,0,0-6.1-2.4,8.135,8.135,0,0,0-6.2,2.4,9.639,9.639,0,0,0-2.3,6.8V114h-9.4V67.1H339V81.4a12.14,12.14,0,0,1,4.8-3.8,16.393,16.393,0,0,1,6.7-1.4A15.793,15.793,0,0,1,358.3,78.1Z" fill="#280071"/>
      </g>
      <g id="Group_1363" data-name="Group 1363">
        <path id="Path_811" data-name="Path 811" d="M371.4,85.3a15.906,15.906,0,0,1,6.1-6.7,16.174,16.174,0,0,1,8.6-2.4,15.427,15.427,0,0,1,7.3,1.7,13.868,13.868,0,0,1,5,4.2V76.8h9.5V114h-9.5v-5.4a14.1,14.1,0,0,1-5,4.3,15.841,15.841,0,0,1-7.4,1.7,16.174,16.174,0,0,1-8.6-2.4,16.8,16.8,0,0,1-6.1-6.8A21.794,21.794,0,0,1,369,95.3,24.15,24.15,0,0,1,371.4,85.3Zm25.7,4.2a10.13,10.13,0,0,0-3.6-3.8,9.472,9.472,0,0,0-4.9-1.3,8.88,8.88,0,0,0-4.8,1.3,9.846,9.846,0,0,0-3.6,3.7,11.849,11.849,0,0,0-1.4,5.8,12.538,12.538,0,0,0,1.4,5.9,9.726,9.726,0,0,0,3.6,3.9,9.123,9.123,0,0,0,4.8,1.3,9.435,9.435,0,0,0,8.5-5.1,11.968,11.968,0,0,0,1.3-5.9A11.044,11.044,0,0,0,397.1,89.5Z" fill="#280071"/>
      </g>
      <g id="Group_1364" data-name="Group 1364">
        <rect id="Rectangle_1556" data-name="Rectangle 1556" width="9.4" height="37.3" transform="translate(414.5 76.8)" fill="#280071"/>
      </g>
      <g id="Group_1365" data-name="Group 1365">
        <path id="Path_812" data-name="Path 812" d="M461.9,80.4c2.7,2.8,4.1,6.7,4.1,11.7V114h-9.4V93.5c0-3-.7-5.2-2.2-6.8a7.909,7.909,0,0,0-6.1-2.4,8.135,8.135,0,0,0-6.2,2.4,9.639,9.639,0,0,0-2.3,6.8V114h-9.4V76.8h9.4v4.6a13.734,13.734,0,0,1,4.8-3.8,15.341,15.341,0,0,1,6.4-1.4C455.6,76.2,459.2,77.6,461.9,80.4Z" fill="#280071"/>
      </g>
      <path id="Path_813" data-name="Path 813" d="M270.6,76.8l-9.7,26-9.6-26H240.7l14.9,36.3-8,18.6h10l23.1-54.9Z" fill="#280071"/>
      <g id="Group_1366" data-name="Group 1366">
        <path id="Path_814" data-name="Path 814" d="M284.4,78.2a21.71,21.71,0,0,1,8.5-8.5A24.742,24.742,0,0,1,305,66.6a24.046,24.046,0,0,1,13.8,4,21.483,21.483,0,0,1,8.3,11.2H316.3a11.575,11.575,0,0,0-4.5-5,13.745,13.745,0,0,0-19.1,5.6,17.7,17.7,0,0,0-1.8,8.2,17.992,17.992,0,0,0,1.8,8.2,11.94,11.94,0,0,0,5,5.4,14.717,14.717,0,0,0,14.1.2,10.271,10.271,0,0,0,4.5-5.1h10.8a21.317,21.317,0,0,1-8.2,11.2,25.5,25.5,0,0,1-25.9.9,21.711,21.711,0,0,1-8.5-8.5,24.3,24.3,0,0,1-3.1-12.4A23.162,23.162,0,0,1,284.4,78.2Z" fill="#280071"/>
      </g>
      <g id="Group_1367" data-name="Group 1367">
        <path id="Path_815" data-name="Path 815" d="M425.1,67.1a5.9,5.9,0,1,0-5.9,5.9A5.911,5.911,0,0,0,425.1,67.1Z" fill="#280071"/>
      </g>
    </g>
  </g>
</svg>
